<?xml version="1.0" standalone="no"?>
<!DOCTYPE svg PUBLIC "-//W3C//DTD SVG 20010904//EN"
 "http://www.w3.org/TR/2001/REC-SVG-20010904/DTD/svg10.dtd">
<svg version="1.0" xmlns="http://www.w3.org/2000/svg"
 width="1024.000000pt" height="1024.000000pt" viewBox="0 0 1024.000000 1024.000000"
 preserveAspectRatio="xMidYMid meet">

<g transform="translate(0.000000,1024.000000) scale(0.100000,-0.100000)"
fill="#000000" stroke="none">
<path d="M2870 7123 l0 -2047 266 469 c146 259 322 571 391 695 70 124 211
376 316 560 104 184 223 396 265 470 41 74 112 200 157 280 50 88 103 200 135
285 59 159 143 325 202 403 67 87 209 214 299 267 78 46 229 105 309 120 147
28 366 10 518 -41 185 -62 297 -162 436 -389 l92 -150 90 -21 c103 -25 149
-41 225 -79 67 -34 119 -72 119 -88 0 -20 -64 -57 -172 -98 -192 -74 -278
-124 -310 -183 -9 -15 -12 -145 -10 -476 1 -501 -3 -560 -59 -743 -34 -112
-104 -254 -175 -354 -58 -81 -254 -281 -339 -344 -132 -99 -356 -217 -523
-275 -30 -11 -50 -24 -48 -30 3 -7 74 -106 158 -220 85 -115 228 -309 317
-431 l163 -223 730 0 c624 0 729 2 725 14 -6 14 -200 292 -511 731 -166 235
-230 326 -410 580 -49 70 -85 130 -80 134 5 5 45 32 89 61 363 242 627 614
734 1038 11 42 23 99 27 127 3 27 8 61 10 75 13 97 15 288 5 377 -28 243 -120
513 -243 715 -237 390 -662 695 -1113 798 -161 37 -204 38 -1507 39 l-1278 1
0 -2047z"/>
<path d="M5602 8109 c-63 -32 -87 -71 -87 -146 0 -47 5 -68 21 -89 53 -72 128
-91 204 -52 123 63 115 230 -15 289 -52 24 -71 24 -123 -2z"/>
<path d="M4510 7250 c-91 -13 -177 -58 -242 -128 -56 -61 -184 -280 -498 -851
-88 -161 -192 -348 -229 -415 -38 -66 -209 -375 -381 -686 -172 -311 -337
-608 -366 -661 -55 -99 -66 -142 -38 -153 9 -3 100 -6 203 -6 174 0 190 2 214
20 25 20 54 70 192 335 141 269 276 506 328 573 61 80 139 129 465 296 455
233 627 344 788 508 197 203 283 397 270 608 -10 167 -67 302 -168 402 -120
119 -342 184 -538 158z"/>
<path d="M5166 4415 c-8 -8 -18 -25 -21 -38 -4 -12 -24 -71 -46 -132 -21 -60
-119 -342 -218 -625 -99 -283 -202 -579 -230 -658 -28 -79 -51 -154 -51 -168
l0 -24 118 0 c79 0 124 4 134 13 9 6 58 129 108 272 51 143 105 296 120 340
16 44 68 193 115 330 47 138 119 346 161 464 41 118 73 220 70 228 -8 20 -239
19 -260 -2z"/>
<path d="M4193 4087 c-95 -61 -287 -186 -428 -277 -141 -90 -260 -170 -266
-176 -5 -7 -9 -49 -7 -94 l3 -83 347 -226 c442 -288 500 -325 516 -329 9 -3
12 31 12 146 l0 149 -122 79 c-68 43 -190 122 -271 175 l-148 97 25 18 c14 11
135 90 270 178 l246 159 0 148 c0 82 -1 149 -2 149 -2 0 -80 -51 -175 -113z"/>
<path d="M5710 4053 l0 -148 118 -75 c258 -163 422 -272 422 -280 0 -7 -325
-220 -487 -320 l-53 -32 0 -154 0 -154 148 97 c81 53 208 135 282 183 240 156
425 278 438 290 8 7 12 39 12 90 0 75 -1 80 -27 99 -27 20 -322 212 -575 375
-68 44 -156 102 -196 128 -41 26 -75 48 -78 48 -2 0 -4 -66 -4 -147z"/>
<path d="M3971 2354 c-151 -41 -298 -160 -363 -294 -48 -99 -62 -165 -61 -285
1 -116 23 -202 77 -298 32 -58 111 -146 163 -182 34 -24 135 -71 168 -80 17
-4 39 -9 50 -12 11 -2 58 -7 105 -10 295 -19 532 147 610 428 75 272 -55 569
-301 688 -46 22 -103 44 -126 49 -68 15 -261 13 -322 -4z m225 -225 c151 -28
253 -140 272 -302 14 -112 -18 -214 -89 -292 -51 -56 -101 -82 -183 -99 -66
-14 -145 -3 -208 30 -56 29 -115 93 -144 157 -26 55 -29 73 -29 162 0 88 4
107 28 161 47 102 130 164 246 184 25 4 46 8 47 9 0 0 27 -4 60 -10z"/>
<path d="M2440 1785 l0 -575 125 0 125 0 0 200 0 200 93 0 92 -1 110 -199 110
-200 138 0 c75 0 137 2 137 4 0 3 -54 100 -120 216 -66 116 -120 215 -120 220
0 4 13 13 29 20 44 18 118 98 149 160 24 49 27 66 27 155 0 87 -3 107 -27 157
-50 108 -167 188 -304 208 -38 5 -180 10 -316 10 l-248 0 0 -575z m587 320
c54 -36 68 -146 26 -203 -39 -52 -75 -62 -225 -62 l-138 0 0 145 0 144 128 3
c134 3 169 -1 209 -27z"/>
<path d="M4990 2003 c0 -197 3 -456 7 -576 l6 -218 316 3 c308 3 317 4 369 27
60 27 129 98 164 169 59 121 12 284 -107 369 l-29 21 42 46 c62 68 86 126 85
211 0 53 -6 81 -23 115 -47 92 -82 123 -174 154 -82 28 -100 30 -378 33 l-278
4 0 -358z m571 100 c31 -30 36 -107 11 -153 -26 -48 -64 -59 -204 -59 l-118
-1 0 123 0 122 145 -5 c131 -5 147 -7 166 -27z m-40 -423 c70 -19 109 -99 87
-177 -17 -61 -51 -73 -215 -73 l-143 0 0 130 0 130 118 0 c64 0 133 -5 153
-10z"/>
<path d="M6169 2358 c-1 -2 -3 -261 -6 -575 l-5 -573 126 0 126 0 0 575 0 575
-120 0 c-66 0 -120 -1 -121 -2z"/>
<path d="M6747 2353 c-4 -3 -7 -262 -7 -575 l0 -568 120 0 120 0 2 363 3 362
98 -150 c55 -82 163 -246 240 -362 l142 -213 122 0 123 0 0 575 0 576 -117 -3
-118 -3 0 -363 c0 -199 -2 -362 -5 -362 -3 0 -71 100 -152 223 -81 122 -191
286 -245 365 l-97 142 -111 0 c-62 0 -115 -3 -118 -7z"/>
</g>
</svg>
